<?xml version="1.0" standalone="no"?>
<!DOCTYPE svg PUBLIC "-//W3C//DTD SVG 20010904//EN"
 "http://www.w3.org/TR/2001/REC-SVG-20010904/DTD/svg10.dtd">
<svg version="1.0" xmlns="http://www.w3.org/2000/svg"
 width="16.000000pt" height="16.000000pt" viewBox="0 0 16.000000 16.000000"
 preserveAspectRatio="xMidYMid meet">
<metadata>
Created by potrace 1.11, written by Peter Selinger 2001-2013
</metadata>
<g transform="translate(0.000000,16.000000) scale(0.005839,-0.005839)"
fill="#000000" stroke="none">
<path d="M1340 2727 c-69 -18 -89 -60 -48 -104 12 -13 18 -26 15 -29 -4 -4
-16 5 -27 19 -26 33 -45 26 -72 -27 -26 -51 -28 -129 -2 -157 9 -10 13 -19 9
-19 -5 0 2 -11 15 -25 13 -14 30 -23 38 -20 9 3 12 -1 7 -14 -4 -14 0 -21 14
-26 22 -7 34 -41 17 -53 -38 -30 -121 -39 -169 -18 -40 16 -45 27 -22 46 23
19 18 46 -12 68 -16 11 -25 23 -22 26 3 3 16 -3 28 -13 23 -20 50 -18 52 3 0
6 3 25 5 41 11 64 10 81 -4 120 -8 22 -24 48 -35 58 -21 18 -22 18 -40 -5
l-20 -23 7 30 c9 42 -11 65 -62 72 -50 7 -95 -10 -117 -44 -16 -23 -15 -25 19
-57 46 -41 46 -54 2 -26 l-35 21 -12 -22 c-6 -12 -12 -46 -13 -75 0 -30 -1
-54 -2 -54 0 0 -16 21 -35 46 -19 25 -42 50 -52 55 -37 20 -76 -17 -56 -53 4
-7 4 -20 0 -27 -10 -16 -21 9 -27 59 -11 110 -164 102 -166 -8 -1 -70 66 -120
102 -77 7 8 18 15 25 15 16 0 37 -48 30 -70 -7 -21 19 -50 43 -50 20 0 76 -82
96 -138 13 -35 12 -38 -10 -55 -29 -21 -31 -51 -6 -69 10 -7 21 -21 25 -31 4
-10 20 -23 37 -28 33 -12 41 -43 14 -53 -9 -3 -85 -6 -170 -6 l-155 0 3 -772
3 -773 22 -46 c55 -116 154 -158 458 -195 74 -9 221 -60 287 -100 l58 -35 27
19 c88 62 204 100 388 127 204 31 272 55 336 119 73 74 72 57 71 890 0 408 -1
747 -1 754 -1 9 -39 12 -154 12 -97 0 -157 4 -164 11 -14 14 -5 49 13 49 8 0
14 4 14 9 0 6 16 25 36 44 l36 33 -27 32 c-24 29 -26 35 -16 65 18 50 81 137
101 137 25 0 41 23 38 58 -1 16 4 37 11 46 15 17 41 22 41 7 0 -5 9 -13 20
-16 79 -25 124 115 50 158 -64 38 -117 11 -128 -67 -4 -27 -13 -51 -20 -54 -9
-3 -11 6 -6 36 5 31 3 40 -11 46 -20 7 -85 -21 -85 -38 0 -6 -12 -22 -25 -35
l-25 -23 -1 38 c-2 85 -29 115 -70 78 -15 -14 -19 -14 -19 -2 0 8 14 24 30 36
36 27 37 41 5 72 -36 34 -111 39 -147 11 -23 -19 -26 -26 -18 -47 14 -37 12
-40 -10 -16 -27 29 -43 20 -70 -38 -19 -41 -22 -57 -16 -113 9 -81 26 -100 60
-68 13 13 27 18 30 13 3 -6 -1 -12 -8 -15 -8 -3 -22 -18 -32 -32 -16 -24 -16
-26 5 -44 20 -18 20 -19 2 -35 -31 -28 -110 -32 -165 -8 -41 19 -46 24 -37 40
6 11 17 22 26 26 8 3 15 11 15 18 0 7 13 21 28 32 30 20 62 86 62 128 0 34
-32 109 -55 128 -15 13 -19 11 -37 -13 -11 -15 -24 -27 -30 -27 -6 0 2 16 17
36 24 32 26 39 15 59 -20 38 -84 57 -140 42z m-432 -381 c19 -18 37 -26 47
-22 9 3 15 1 14 -7 -3 -26 2 -35 24 -42 12 -4 26 -6 31 -6 11 2 -12 -28 -34
-46 -21 -17 -81 -16 -108 3 -17 12 -21 21 -15 42 3 15 6 31 5 37 0 5 -3 33 -6
60 -3 32 -2 43 3 30 5 -11 23 -33 39 -49z m404 42 c-7 -7 -12 -8 -12 -2 0 6 3
14 7 17 3 4 9 5 12 2 2 -3 -1 -11 -7 -17z m148 2 c0 -5 -7 -7 -15 -4 -8 4 -12
10 -9 15 6 11 24 2 24 -11z m426 -54 c-5 -33 -3 -63 3 -74 14 -26 -5 -42 -56
-49 -29 -4 -44 0 -65 17 -35 27 -35 38 -2 50 19 7 25 16 21 29 -3 14 0 17 15
13 13 -3 29 7 51 32 18 20 34 36 36 36 2 0 0 -24 -3 -54z m-896 34 c0 -5 -5
-10 -11 -10 -5 0 -7 5 -4 10 3 6 8 10 11 10 2 0 4 -4 4 -10z m790 -11 c0 -6
-4 -7 -10 -4 -5 3 -10 11 -10 16 0 6 5 7 10 4 6 -3 10 -11 10 -16z"/>
</g>
</svg>
